<svg viewBox="16 16 224 224" xmlns="http://www.w3.org/2000/svg" style="fill: white; stroke: black; stroke-width: 15; stroke-linejoin: round;">
<path d="M 128.001 172 a 44 44 0 1 1 44 -44 A 44.0498 44.0498 0 0 1 128.001 172 Z m 103.606 -19.1943 l -15.7046 -20.9365 c 0.0728 -2.5654 0.0195 -5.8618 -0.0225 -7.709 l 15.7202 -20.9595 a 3.9998 3.9998 0 0 0 0.6616 -3.4424 a 107.4434 107.4434 0 0 0 -10.5566 -25.5102 a 4.0004 4.0004 0 0 0 -2.9033 -1.9678 L 192.915 68.5835 c -1.7485 -1.9087 -3.5903 -3.7505 -5.4985 -5.4985 l -3.6958 -25.8755 a 3.9995 3.9995 0 0 0 -1.9658 -2.9023 A 107.4649 107.4649 0 0 0 156.251 23.7334 a 3.9984 3.9984 0 0 0 -3.4438 0.6616 L 131.8887 40.0855 c -2.5859 -0.1133 -5.1904 -0.1133 -7.7764 0 L 103.2022 24.4019 a 3.9998 3.9998 0 0 0 -3.4424 -0.6616 A 107.4301 107.4301 0 0 0 74.2485 34.2974 a 3.9999 3.9999 0 0 0 -1.9673 2.9028 L 68.585 63.0864 c -1.9087 1.7485 -3.7505 3.5903 -5.499 5.499 L 37.2105 72.2808 a 4.0023 4.0023 0 0 0 -2.9023 1.9663 A 107.4535 107.4535 0 0 0 23.7344 99.7515 a 4.0003 4.0003 0 0 0 0.6616 3.4438 l 15.7046 20.9365 c -0.0728 2.5654 -0.0195 5.8618 0.0225 7.709 L 24.4028 152.8003 a 3.9998 3.9998 0 0 0 -0.6616 3.4424 a 107.4436 107.4436 0 0 0 10.5566 25.5102 a 4.0004 4.0004 0 0 0 2.9033 1.9678 l 25.8867 3.6968 c 1.7485 1.9087 3.5903 3.7505 5.4985 5.4985 l 3.6958 25.8755 a 3.9994 3.9994 0 0 0 1.9658 2.9024 a 107.4654 107.4654 0 0 0 25.5039 10.5737 a 3.9987 3.9987 0 0 0 3.4438 -0.6616 l 20.9185 -15.6904 c 2.5859 0.1133 5.1904 0.1133 7.7764 0 l 20.9102 15.6836 a 3.9982 3.9982 0 0 0 3.4424 0.6616 a 107.4297 107.4297 0 0 0 25.5112 -10.5571 a 3.9998 3.9998 0 0 0 1.9673 -2.9028 l 3.6997 -25.9092 c 1.8652 -1.7627 4.1582 -4.1314 5.4351 -5.4668 l 25.936 -3.7046 a 4.0023 4.0023 0 0 0 2.9023 -1.9663 a 107.453 107.453 0 0 0 10.5737 -25.5044 A 4.0003 4.0003 0 0 0 231.6069 152.8057 Z"/>
</svg>
